<?xml version="1.0" encoding="UTF-8" standalone="no"?>
<!DOCTYPE svg PUBLIC "-//W3C//DTD SVG 1.1//EN" "http://www.w3.org/Graphics/SVG/1.1/DTD/svg11.dtd">
<svg width="100%" height="100%" viewBox="0 0 575 575" version="1.1" xmlns="http://www.w3.org/2000/svg" xmlns:xlink="http://www.w3.org/1999/xlink" xml:space="preserve" xmlns:serif="http://www.serif.com/" style="fill-rule:evenodd;clip-rule:evenodd;stroke-linecap:round;stroke-linejoin:round;stroke-miterlimit:1.5;">
    <g transform="matrix(4.16667,0,0,4.16667,0,0)">
        <g transform="matrix(0.999889,-0.0149278,0.0149278,0.999889,-224.117,-204.633)">
            <path d="M311.786,335L310.888,320.156L311.186,319.386L310.586,307.854L314.193,302.5C312.738,297.808 316.132,281.51 317.504,280C318.172,279.265 316.563,280.542 316.773,279.545C318.504,271.347 322.024,260.195 324.854,250.385C335.324,241.443 329.366,233.59 310.709,230.646C308.772,226.138 306.278,223.547 304.061,222.688C303.816,221.078 303.634,219.247 303,219C303.496,217.772 300.435,216.419 298.146,215.717C282.094,210.794 246.145,217.365 241.823,227.611C241.308,227.424 241.403,229.372 241.823,232.46C240.275,232.994 239.167,234.42 238.41,236.391C237.652,238.361 237.121,242.144 236.703,243.018C236.379,248.809 243.475,250.398 254,252C255.767,251.055 257.021,260.199 257,274.66C256.999,275.56 256.061,273.494 256.059,274.463C256.056,276.198 256.557,278.042 256.53,280L265,292L262,306L265,309C265.189,311.127 265.02,313.11 264.665,315.019L265.121,315.394C264.871,321.263 264.858,327.131 264,333C277.128,344.551 293.203,345.523 311.786,335Z" style="fill:rgb(74,74,74);"/>
        </g>
        <path d="M35.858,66.187C37.082,66.197 54.741,72.005 72.68,72.492C79.468,72.676 89.471,71.744 94.699,71.151C96.991,70.891 98.753,69.647 97.951,70.573C92.65,76.691 95.303,92.305 94.553,93.365C93.541,94.794 91.012,99.153 91.012,99.153L91.607,109.826C79.476,115.805 66.279,115.755 45.724,106.106L45.597,101.06L42.274,97.49L44.844,82.646L36.431,72.218L35.858,66.187Z" style="fill:rgb(123,123,123);"/>
        <g transform="matrix(0.999889,-0.0149278,0.0149278,0.999889,-306.272,-214.408)">
            <path d="M394,243C397.276,245.885 398.511,249.314 398,253.208C392.839,250.776 390.016,250.097 387.887,249.94C389.782,248.626 391.853,246.081 394,243Z" style="fill:rgb(89,89,89);fill-opacity:0.59;"/>
        </g>
        <g transform="matrix(0.993298,0.115583,-0.115583,0.993298,-263.603,-275.913)">
            <path d="M347.626,326.73C347.712,322.387 346.601,318.028 353.051,324.91C352.07,325.387 347.401,320.952 347.626,326.73Z" style="fill:rgb(107,107,107);fill-opacity:0.24;"/>
        </g>
        <g transform="matrix(1,0,0,1,-220.008,-209.042)">
            <path d="M311.226,319.844C310.845,318.72 313.864,329.618 312.643,334.717C312.058,337.159 302.007,339.537 301.864,339.498C301.216,339.321 307.617,335.904 309,333C310.56,329.724 311.441,320.479 311.226,319.844Z" style="fill-opacity:0.18;"/>
        </g>
        <g transform="matrix(0.999889,-0.0149278,0.0149278,0.999889,-224.117,-204.633)">
            <path d="M324.854,250.385L316.651,280.113C316.587,278.864 315.473,281.029 315.405,279.981C314.592,267.378 314.51,265.329 312.86,264.756C304.096,261.715 277.948,260.551 268.498,253.793C292.818,259.173 311.769,258.233 324.854,250.385Z" style="fill-opacity:0.18;"/>
        </g>
        <g transform="matrix(0.999889,-0.0149278,0.0149278,0.999889,-306.272,-214.408)">
            <path d="M387.522,250.684C387.249,250.647 387.056,250.395 387.093,250.121C387.13,249.848 387.382,249.656 387.656,249.693C389.443,250.002 391.04,250.399 392.485,250.82C393.235,251.038 393.944,251.257 394.611,251.492C396.502,252.155 398.065,252.897 399.329,253.684C399.97,254.083 400.54,254.485 401.03,254.899C401.759,255.513 402.309,256.144 402.76,256.711C402.896,256.882 403.024,257.047 403.142,257.206C403.737,258.009 404.072,258.697 404.191,259.187C404.258,259.463 404.26,259.679 404.216,259.821C404.168,259.974 404.07,260.056 403.946,260.074C403.874,260.085 403.807,260.034 403.797,259.962C403.786,259.89 403.837,259.823 403.909,259.813C403.957,259.806 403.971,259.753 403.983,259.681C404.002,259.571 403.993,259.423 403.953,259.242C403.851,258.77 403.559,258.09 402.982,257.326C402.865,257.17 402.735,257.013 402.591,256.855C402.116,256.333 401.491,255.812 400.746,255.258C400.245,254.887 399.691,254.5 399.061,254.124C397.811,253.378 396.288,252.644 394.427,252.032C393.768,251.816 393.069,251.61 392.323,251.434C390.888,251.096 389.291,250.856 387.522,250.684Z"/>
        </g>
        <g transform="matrix(0.140801,-0.0227291,0.0227291,0.140801,4.74388,7.34995)">
            <path d="M143.614,142.358C144.52,142.697 144.981,143.708 144.642,144.614C144.303,145.52 143.292,145.981 142.386,145.642C142.386,145.642 116.599,135.963 103.577,122.443C95.358,113.911 92.046,103.932 101.732,93.789C102.401,93.09 103.511,93.064 104.211,93.732C104.91,94.401 104.936,95.511 104.268,96.211C96.215,104.643 99.269,112.918 106.102,120.011C118.678,133.067 143.614,142.358 143.614,142.358Z" style="fill:white;"/>
        </g>
        <g transform="matrix(0.140801,-0.0227291,0.0227291,0.140801,4.74388,7.34995)">
            <path d="M479.724,145.596C478.843,145.996 477.804,145.605 477.404,144.724C477.004,143.843 477.395,142.804 478.276,142.404C487.939,138.019 516.036,125.414 526.445,110.949C529.535,106.656 531.027,102.217 529.559,97.785C527.937,92.886 522.891,88.153 513.249,83.584C512.375,83.17 512.002,82.124 512.416,81.249C512.83,80.375 513.876,80.002 514.751,80.416C525.612,85.563 531.059,91.164 532.887,96.683C534.699,102.156 533.106,107.696 529.291,112.997C518.556,127.914 489.689,141.074 479.724,145.596Z" style="fill:white;"/>
        </g>
        <g transform="matrix(0.140801,-0.0227291,0.0227291,0.140801,4.74388,7.34995)">
            <path d="M104.324,96.149C103.689,96.88 102.581,96.958 101.851,96.324C101.12,95.689 101.042,94.581 101.676,93.851C104.808,90.243 117.668,80.582 136.335,71.815C147.431,66.604 160.583,61.694 174.942,58.545C177.94,57.888 192.333,54.21 208.843,51.025C216.343,49.578 224.278,48.233 231.785,47.317C260.054,43.865 293.19,41.911 327.787,42.306C359.379,42.666 392.19,44.985 423.625,49.905C439.756,52.43 455.412,55.979 470.642,60.96C485.791,65.914 500.518,72.286 514.869,80.478C515.709,80.957 516.002,82.029 515.522,82.869C515.043,83.709 513.971,84.002 513.131,83.522C498.991,75.451 484.48,69.174 469.553,64.292C454.5,59.369 439.025,55.864 423.083,53.369C391.812,48.474 359.174,46.17 327.747,45.811C293.317,45.418 260.342,47.361 232.21,50.796C224.781,51.704 216.929,53.035 209.507,54.467C193.039,57.644 178.683,61.314 175.693,61.97C161.609,65.058 148.709,69.876 137.826,74.988C119.815,83.447 107.345,92.669 104.324,96.149Z" style="fill:white;"/>
        </g>
        <g transform="matrix(0.140801,-0.0227291,0.0227291,0.140801,4.74388,7.34995)">
            <path d="M142.273,145.595C141.392,145.193 141.004,144.153 141.405,143.273C141.807,142.392 142.847,142.004 143.727,142.405C143.727,142.405 205.652,170.624 303.002,171.239C349.438,171.533 403.925,165.547 463.596,147.234C464.521,146.95 465.502,147.471 465.786,148.396C466.07,149.32 465.55,150.302 464.625,150.586C404.563,169.018 349.719,175.041 302.98,174.745C204.748,174.124 142.273,145.595 142.273,145.595Z" style="fill:white;"/>
        </g>
        <g transform="matrix(0.140801,-0.0227291,0.0227291,0.140801,4.74388,7.34995)">
            <path d="M151.876,83.518C151.038,84.002 149.965,83.714 149.482,82.876C148.998,82.038 149.286,80.965 150.124,80.482C150.124,80.482 185.598,59.975 257.192,53.343C299.522,49.422 354.525,50.349 422.328,63.278C423.279,63.459 423.903,64.378 423.722,65.328C423.541,66.279 422.622,66.903 421.672,66.722C368.066,56.5 322.51,53.817 284.936,55.108C195.947,58.167 151.876,83.518 151.876,83.518Z" style="fill:white;"/>
        </g>
        <g transform="matrix(0.140801,-0.0227291,0.0227291,0.140801,4.74388,7.34995)">
            <path d="M424.503,137.679C423.576,137.957 422.598,137.43 422.321,136.503C422.043,135.576 422.57,134.598 423.497,134.321C425.315,133.776 462.508,120.519 471.523,103.653C474.69,97.727 473.927,91.377 466.291,84.997C460.275,79.972 450.251,74.99 434.917,70.177C433.103,69.607 431.43,69.132 429.656,68.668C427.324,68.058 424.818,67.467 421.597,66.706C420.656,66.484 420.072,65.539 420.294,64.597C420.516,63.656 421.461,63.072 422.403,63.294C425.657,64.062 428.188,64.661 430.543,65.277C432.372,65.755 434.096,66.245 435.967,66.832C451.903,71.834 462.287,77.084 468.538,82.307C477.914,90.139 478.503,98.03 474.615,105.305C465.176,122.964 426.406,137.109 424.503,137.679Z" style="fill:white;"/>
        </g>
        <g transform="matrix(0.140801,-0.0227291,0.0227291,0.140801,4.74388,7.34995)">
            <path d="M211.664,148.72C210.715,148.535 210.094,147.614 210.28,146.664C210.465,145.715 211.386,145.094 212.336,145.28C212.336,145.28 253.969,153.388 318.379,149.692C348.987,147.936 384.732,143.515 423.595,134.294C424.537,134.071 425.482,134.654 425.706,135.595C425.929,136.537 425.346,137.482 424.405,137.706C385.316,146.979 349.364,151.426 318.58,153.192C253.64,156.918 211.664,148.72 211.664,148.72Z" style="fill:white;"/>
        </g>
        <g transform="matrix(0.140801,-0.0227291,0.0227291,0.140801,4.74388,7.34995)">
            <path d="M150.262,80.41C151.139,80.003 152.183,80.384 152.59,81.262C152.997,82.139 152.616,83.183 151.738,83.59C151.738,83.59 141.654,88.262 135.049,95.485C131.652,99.201 129.133,103.596 129.823,108.42C130.359,112.164 132.82,116.079 138,120.131C148.853,128.619 171.121,137.348 212.331,145.279C213.281,145.462 213.904,146.381 213.721,147.331C213.538,148.281 212.619,148.904 211.669,148.721C169.599,140.625 146.919,131.557 135.84,122.892C129.714,118.1 126.986,113.344 126.353,108.917C125.515,103.059 128.337,97.631 132.462,93.119C139.51,85.411 150.262,80.41 150.262,80.41Z" style="fill:white;"/>
        </g>
        <g transform="matrix(0.140801,-0.0227291,0.0227291,0.140801,4.74388,7.34995)">
            <path d="M141.51,122.922C141.926,123.795 141.554,124.842 140.681,125.258C139.808,125.674 138.761,125.303 138.345,124.43C138.345,124.43 129.595,106.715 155.577,89.858C166.595,82.709 184.087,75.653 211.665,70.28C212.614,70.094 213.535,70.715 213.72,71.665C213.906,72.614 213.285,73.535 212.335,73.72C185.376,78.974 168.256,85.811 157.485,92.799C134.551,107.678 141.51,122.922 141.51,122.922Z" style="fill:white;"/>
        </g>
        <g transform="matrix(0.140801,-0.0227291,0.0227291,0.140801,4.74388,7.34995)">
            <path d="M463.527,116.201L460.102,116.949C460.102,116.949 455.44,96.933 409.565,82.091C387.93,75.092 357.283,69.299 313.918,67.278L314.082,63.776C357.863,65.816 388.801,71.689 410.644,78.756C459.063,94.421 463.527,116.201 463.527,116.201Z" style="fill:white;"/>
        </g>
        <g transform="matrix(0.140801,-0.0227291,0.0227291,0.140801,4.74388,7.34995)">
            <path d="M313.82,67.27C313.82,67.27 313.571,67.257 313.321,67.247C312.415,67.213 310.525,67.161 307.833,67.119C297.663,66.961 276.085,66.956 252.744,68.681C239.24,69.679 225.143,71.256 212.331,73.721C211.381,73.904 210.462,73.281 210.279,72.331C210.096,71.381 210.719,70.462 211.669,70.279C227.897,67.156 246.165,65.44 262.734,64.525C282.909,63.411 300.56,63.482 308.915,63.631C311.2,63.672 312.794,63.718 313.558,63.748C314.441,63.783 314.882,64.013 314.904,64.026C315.733,64.525 316.001,65.603 315.502,66.431C315.14,67.032 314.474,67.337 313.82,67.27Z" style="fill:white;"/>
        </g>
        <g transform="matrix(0.140801,-0.0227291,0.0227291,0.140801,4.05121,7.55373)">
            <path d="M474.091,122.173C474.091,122.173 474.325,122.027 474.568,121.889C475.261,121.496 476.738,120.74 479.068,119.978C481.009,119.343 483.56,118.699 486.764,118.263C489.903,117.836 493.709,117.714 496.616,118.078C498.755,118.346 500.453,118.941 501.343,119.709C502.031,120.303 502.392,121.015 502.459,121.8C502.54,122.739 502.154,123.987 500.68,125.345C499.695,126.253 498.127,127.324 495.822,128.548C491.679,130.748 487.985,132.644 484.86,134.213C478.645,137.333 474.671,139.161 473.871,139.527C473.756,139.599 473.514,139.744 473.154,139.936C471.983,140.559 469.454,141.702 465.91,142.138C463.563,142.427 460.766,142.407 457.621,141.711C453.496,140.799 450.481,140.215 449.117,139.557C448.285,139.155 447.82,138.641 447.592,138.178C447.251,137.484 447.224,136.727 447.737,135.896C448.222,135.11 449.9,133.921 453.251,132.415L474.091,122.173ZM472.721,139.73L472.278,136.403C472.278,136.403 476.383,134.546 483.287,131.08C486.392,129.521 490.062,127.638 494.178,125.452C496.681,124.123 498.163,123.11 498.801,122.245C498.503,122.108 498.001,121.894 497.554,121.792C494.872,121.179 490.623,121.276 487.236,121.737C484.884,122.057 482.912,122.497 481.304,122.958C478.757,123.69 477.145,124.469 476.391,124.886C475.992,125.107 475.647,125.235 475.376,125.308L475.773,125.249L454.746,135.587L454.718,135.599C453.71,136.052 452.882,136.444 452.224,136.791C453.729,137.185 456.043,137.772 458.379,138.289C461.074,138.885 463.471,138.906 465.482,138.659C468.428,138.296 470.534,137.359 471.507,136.841C471.755,136.709 472,136.559 472,136.559L472.721,139.73Z" style="fill:white;"/>
        </g>
        <g transform="matrix(0.140801,-0.0227291,0.0227291,0.140801,4.74388,7.34995)">
            <path d="M91.255,162.662C91.165,161.698 91.875,160.844 92.838,160.755C93.802,160.665 94.656,161.375 94.745,162.338C94.839,163.345 94.534,164.929 94.21,166.962C93.625,170.636 93.092,176.067 96.444,182.245C99.682,188.214 106.45,194.798 119.821,201.282C140.488,211.304 176.594,220.912 239.177,227.256C240.139,227.354 240.841,228.214 240.744,229.177C240.646,230.139 239.786,230.841 238.823,230.744C175.615,224.337 139.165,214.559 118.291,204.436C103.971,197.492 96.831,190.31 93.362,183.916C89.521,176.836 90.078,170.621 90.748,166.411C91.011,164.758 91.33,163.479 91.255,162.662Z" style="fill:white;"/>
        </g>
        <g transform="matrix(0.140801,-0.0227291,0.0227291,0.140801,4.74388,7.34995)">
            <path d="M474.172,205.412C475.048,205.002 476.092,205.381 476.502,206.257C476.912,207.134 476.533,208.178 475.657,208.588C475.657,208.588 444.889,223.011 382.286,230.139C345.545,234.322 297.802,235.996 238.845,230.746C237.881,230.66 237.168,229.808 237.254,228.845C237.34,227.881 238.192,227.168 239.155,227.254C297.822,232.478 345.329,230.818 381.889,226.655C443.754,219.611 474.172,205.412 474.172,205.412Z" style="fill:white;"/>
        </g>
        <g transform="matrix(0.140801,-0.0227291,0.0227291,0.140801,4.74388,7.34995)">
            <path d="M535.91,155.615C535.847,154.65 536.579,153.814 537.545,153.751C538.51,153.688 539.345,154.42 539.409,155.385C540.041,165.011 543.227,171.828 532.257,181.191C524.147,188.114 507.804,196.513 475.531,208.641C474.625,208.981 473.614,208.522 473.273,207.617C472.933,206.711 473.392,205.699 474.298,205.359C505.953,193.463 522.027,185.315 529.981,178.525C539.675,170.25 536.469,164.121 535.91,155.615Z" style="fill:white;"/>
        </g>
        <g transform="matrix(0.140801,-0.0227291,0.0227291,0.140801,4.74388,7.34995)">
            <path d="M539.529,156.618C539.637,157.58 538.945,158.448 537.983,158.557C537.022,158.665 536.154,157.973 536.045,157.012L529.995,103.433C529.886,102.472 530.579,101.603 531.54,101.495C532.501,101.386 533.37,102.078 533.478,103.04L539.529,156.618Z" style="fill:white;"/>
        </g>
        <g transform="matrix(0.140801,-0.0227291,0.0227291,0.140801,4.74388,7.34995)">
            <path d="M94.747,162.644C94.668,163.608 93.82,164.326 92.856,164.247C91.892,164.168 91.174,163.32 91.253,162.356L95.903,105.83C95.982,104.866 96.829,104.147 97.793,104.227C98.757,104.306 99.476,105.153 99.396,106.117L94.747,162.644Z" style="fill:white;"/>
        </g>
        <g transform="matrix(0.140801,-0.0227291,0.0227291,0.140801,4.74388,7.34995)">
            <path d="M93.69,131.072L96.31,133.401C96.147,133.585 87.942,138.838 79.728,147.052C72.748,154.032 65.71,163.209 64.07,173.267C62.053,185.641 68.456,199.098 92.814,211.436L91.23,214.564C64.791,201.172 58.421,186.134 60.61,172.703C64.294,150.106 93.379,131.422 93.69,131.072Z" style="fill:white;"/>
        </g>
        <g transform="matrix(0.140801,-0.0227291,0.0227291,0.140801,4.74388,7.34995)">
            <path d="M436.599,238.767C437.545,238.562 438.478,239.164 438.683,240.109C438.888,241.055 438.286,241.989 437.341,242.193C415.76,246.865 401.491,250.054 377.389,251.819C357.28,253.291 330.309,253.77 286.47,253.279C255.617,252.935 221.895,250.324 186.977,243.654C155.653,237.67 123.368,228.42 91.328,214.61C90.44,214.227 90.029,213.195 90.412,212.306C90.795,211.418 91.827,211.007 92.716,211.39C124.511,225.095 156.55,234.273 187.634,240.21C222.335,246.839 255.848,249.431 286.509,249.774C330.206,250.262 357.089,249.79 377.133,248.322C401.04,246.572 415.193,243.401 436.599,238.767Z" style="fill:white;"/>
        </g>
        <g transform="matrix(0.140801,-0.0227291,0.0227291,0.140801,4.74388,7.34995)">
            <path d="M533.792,132.001L535.495,128.937C535.495,128.937 561.848,143.75 564.273,164.149C565.593,175.254 560.072,188.195 539.193,201.21L537.339,198.235C556.484,186.3 562.002,174.746 560.792,164.563C558.537,145.589 533.792,132.001 533.792,132.001Z" style="fill:white;"/>
        </g>
        <g transform="matrix(0.140801,-0.0227291,0.0227291,0.140801,4.74388,7.34995)">
            <path d="M437.403,242.179C436.465,242.418 435.51,241.85 435.271,240.913C435.032,239.975 435.6,239.02 436.537,238.782C458.842,233.1 475.519,227.806 488.75,222.754C511.417,214.098 523.953,206.154 537.373,198.214C538.206,197.721 539.282,197.997 539.774,198.83C540.267,199.662 539.991,200.738 539.158,201.231C525.592,209.258 512.915,217.279 490.001,226.029C476.672,231.119 459.872,236.456 437.403,242.179Z" style="fill:white;"/>
        </g>
        <g transform="matrix(0.140801,-0.0227291,0.0227291,0.140801,4.74388,7.34995)">
            <path d="M47.264,212.76C47.396,211.802 48.282,211.131 49.24,211.264C50.198,211.396 50.869,212.282 50.736,213.24C50.736,213.24 48.302,233.313 89.511,254.567C108.236,264.225 135.801,274.034 176.349,282.282C177.297,282.475 177.911,283.401 177.718,284.349C177.525,285.297 176.599,285.911 175.651,285.718C134.674,277.382 106.827,267.443 87.904,257.683C43.853,234.963 47.264,212.76 47.264,212.76Z" style="fill:white;"/>
        </g>
        <g transform="matrix(0.140801,-0.0227291,0.0227291,0.140801,4.74388,7.34995)">
            <path d="M50.653,213.445C50.408,214.381 49.448,214.941 48.513,214.695C47.577,214.45 47.017,213.491 47.262,212.555C48.74,206.924 50.39,201.472 52.147,196.13C54.848,187.913 57.801,179.957 60.76,172.007C61.097,171.1 62.107,170.638 63.014,170.976C63.921,171.313 64.383,172.323 64.045,173.23C61.102,181.138 58.165,189.051 55.477,197.225C53.742,202.5 52.112,207.884 50.653,213.445Z" style="fill:white;"/>
        </g>
        <g transform="matrix(0.140801,-0.0227291,0.0227291,0.140801,4.74388,7.34995)">
            <path d="M581.489,205.155C581.845,206.054 581.404,207.074 580.505,207.431C579.606,207.787 578.586,207.346 578.23,206.447L558.437,156.519C558.081,155.62 558.521,154.601 559.421,154.244C560.32,153.887 561.34,154.328 561.696,155.228L581.489,205.155Z" style="fill:white;"/>
        </g>
        <g transform="matrix(0.999889,-0.0149278,0.0149278,0.999889,-306.272,-214.408)">
            <path d="M338.434,263.058C338.297,263.047 338.194,262.927 338.205,262.789C338.215,262.652 338.336,262.549 338.473,262.56C344.31,263.017 360.296,262.684 374.291,257.358C381.989,254.429 389.086,249.988 393.54,243.322C393.617,243.207 393.772,243.176 393.887,243.253C394.002,243.329 394.033,243.485 393.956,243.599C389.445,250.351 382.265,254.858 374.468,257.826C360.389,263.184 344.307,263.519 338.434,263.058Z" style="fill:white;"/>
        </g>
        <g transform="matrix(0.999889,-0.0149278,0.0149278,0.999889,-306.272,-214.408)">
            <path d="M392.942,242.243C392.808,242.211 392.725,242.076 392.757,241.942C392.789,241.808 392.924,241.725 393.058,241.757C393.058,241.757 400.362,243.502 405.191,246.727C408.098,248.669 410.093,251.156 409.24,254.088C409.202,254.22 409.063,254.297 408.93,254.258C408.798,254.219 408.721,254.081 408.76,253.948C409.554,251.22 407.619,248.95 404.913,247.143C400.149,243.961 392.942,242.243 392.942,242.243Z" style="fill:white;"/>
        </g>
        <g transform="matrix(0.999889,-0.0149278,0.0149278,0.999889,-306.272,-214.408)">
            <path d="M392.817,241.898C392.732,241.935 392.63,241.923 392.555,241.86C392.419,241.745 392.447,241.622 392.486,241.544C392.509,241.499 392.553,241.436 392.655,241.409C392.687,241.4 392.756,241.392 392.859,241.399C393.077,241.415 393.551,241.488 394.212,241.622C396.868,242.158 402.604,243.663 406.866,246.11C410.391,248.133 412.887,250.815 412.006,254.083C411.97,254.216 411.832,254.295 411.699,254.259C411.566,254.223 411.487,254.086 411.523,253.953C412.164,251.575 410.828,249.561 408.658,247.89C404.581,244.751 397.559,242.833 394.354,242.162C393.622,242.008 393.091,241.92 392.845,241.9C392.836,241.899 392.826,241.898 392.817,241.898ZM392.924,241.53C392.913,241.513 392.898,241.495 392.877,241.477C392.896,241.493 392.912,241.511 392.924,241.53Z" style="fill:white;"/>
        </g>
        <g transform="matrix(0.999889,-0.0149278,0.0149278,0.999889,-306.272,-214.408)">
            <path d="M348.948,263.2C348.813,263.172 348.727,263.039 348.755,262.904C348.784,262.769 348.917,262.683 349.052,262.711C349.052,262.711 369.836,267.093 387.197,265.1C396.879,263.989 405.503,260.912 408.773,253.912C408.832,253.787 408.981,253.733 409.106,253.791C409.231,253.85 409.285,253.999 409.227,254.124C405.891,261.263 397.128,264.464 387.254,265.597C369.821,267.598 348.948,263.2 348.948,263.2Z" style="fill:white;"/>
        </g>
        <g transform="matrix(0.999889,-0.0149278,0.0149278,0.999889,-306.272,-214.408)">
            <path d="M341.024,263.205C340.886,263.218 340.764,263.117 340.751,262.979C340.738,262.842 340.839,262.72 340.976,262.707C341.39,262.667 351.679,265.652 366.035,267.005C373.621,267.72 382.346,267.975 391.349,267.077C391.487,267.064 391.609,267.164 391.623,267.301C391.637,267.438 391.536,267.561 391.399,267.575C382.361,268.476 373.603,268.22 365.988,267.503C351.684,266.155 341.436,263.165 341.024,263.205Z" style="fill:white;"/>
        </g>
        <g transform="matrix(0.999889,-0.0149278,0.0149278,0.999889,-306.272,-214.408)">
            <path d="M411.522,253.957C411.555,253.823 411.691,253.742 411.825,253.775C411.959,253.809 412.04,253.945 412.007,254.079C411.751,255.101 410.65,258.981 405.959,262.401C402.901,264.631 398.308,266.669 391.407,267.574C391.27,267.592 391.144,267.495 391.126,267.359C391.108,267.222 391.205,267.096 391.342,267.078C398.133,266.188 402.655,264.191 405.664,261.997C410.2,258.691 411.275,254.946 411.522,253.957Z" style="fill:white;"/>
        </g>
        <g transform="matrix(0.999889,-0.0149278,0.0149278,0.999889,-306.272,-214.408)">
            <path d="M338.785,291.127C338.715,291.008 338.754,290.855 338.873,290.785C338.992,290.715 339.145,290.754 339.215,290.873C340.625,293.267 342.8,296.383 344.967,299.277C347.588,302.779 350.198,305.956 351.424,307.131C351.523,307.226 351.527,307.385 351.431,307.484C351.336,307.584 351.178,307.587 351.078,307.492C349.842,306.308 347.209,303.107 344.566,299.577C342.388,296.667 340.202,293.534 338.785,291.127Z" style="fill:white;"/>
        </g>
        <g transform="matrix(0.999889,-0.0149278,0.0149278,0.999889,-306.272,-214.408)">
            <path d="M344.244,317.056C344.213,317.19 344.079,317.275 343.944,317.244C343.81,317.213 343.725,317.079 343.756,316.944C343.756,316.944 344.782,312.478 345.54,307.942C345.901,305.781 346.202,303.604 346.302,301.89C346.31,301.752 346.428,301.647 346.566,301.655C346.704,301.663 346.809,301.781 346.801,301.919C346.701,303.648 346.398,305.844 346.033,308.024C345.272,312.575 344.244,317.056 344.244,317.056Z" style="fill:white;"/>
        </g>
        <g transform="matrix(0.999889,-0.0149278,0.0149278,0.999889,-306.272,-214.408)">
            <path d="M347.09,320.404C347.08,320.397 347.043,320.37 347.017,320.355C346.949,320.316 346.869,320.277 346.777,320.232C346.142,319.921 345.026,319.381 343.603,317.268C343.455,317.048 343.513,316.75 343.732,316.603C343.952,316.455 344.25,316.513 344.397,316.732C345.659,318.605 346.636,319.096 347.199,319.372C347.572,319.555 347.8,319.713 347.917,319.92C348.047,320.151 347.966,320.443 347.735,320.573C347.509,320.701 347.224,320.625 347.09,320.404Z" style="fill:white;"/>
        </g>
        <g transform="matrix(0.999889,-0.0149278,0.0149278,0.999889,-306.272,-214.408)">
            <path d="M396.056,313.291C396.171,313.215 396.326,313.247 396.402,313.363C396.478,313.478 396.446,313.633 396.331,313.709C395.622,314.175 394.065,316.264 392.638,318.565C391.423,320.524 390.306,322.641 389.901,324.068C389.864,324.201 389.725,324.278 389.593,324.241C389.46,324.203 389.383,324.065 389.42,323.932C389.834,322.472 390.971,320.305 392.213,318.302C393.69,315.92 395.323,313.774 396.056,313.291Z" style="fill:white;"/>
        </g>
        <g transform="matrix(0.999889,-0.0149278,0.0149278,0.999889,-306.272,-214.408)">
            <path d="M392.853,330.522C392.852,330.524 392.852,330.526 392.852,330.528C392.827,330.679 392.832,331 392.856,331.46C392.948,333.255 393.344,337.055 393.692,341.29C393.818,342.823 393.938,344.413 394.035,345.985C394.044,346.122 393.939,346.241 393.801,346.25C393.663,346.258 393.545,346.153 393.536,346.015C393.192,340.446 392.562,334.658 392.385,331.959C392.338,331.248 392.324,330.744 392.35,330.506C392.372,330.316 392.449,330.218 392.496,330.184C392.608,330.103 392.764,330.127 392.845,330.239C392.908,330.325 392.907,330.438 392.853,330.522Z" style="fill:white;"/>
        </g>
        <g transform="matrix(0.999889,-0.0149278,0.0149278,0.999889,-306.272,-214.408)">
            <path d="M376.351,238.043C376.228,238.104 376.078,238.054 376.016,237.931C375.954,237.807 376.004,237.657 376.128,237.595L378.128,236.595C378.251,236.534 378.402,236.584 378.463,236.707C378.525,236.831 378.475,236.981 378.351,237.043L376.351,238.043Z" style="fill:white;"/>
        </g>
        <g transform="matrix(0.999889,-0.0149278,0.0149278,0.999889,-306.272,-214.408)">
            <path d="M346.353,344.203C346.242,344.122 346.217,343.965 346.297,343.853C346.378,343.742 346.535,343.717 346.647,343.797C349.542,345.892 356.355,353.029 369.581,352.779C376.007,352.657 383.941,350.793 393.671,345.778C393.794,345.715 393.945,345.763 394.008,345.885C394.071,346.008 394.023,346.159 393.9,346.222C384.083,351.283 376.074,353.156 369.59,353.278C356.195,353.532 349.286,346.324 346.353,344.203Z" style="fill:white;"/>
        </g>
        <g transform="matrix(0.999889,-0.0149278,0.0149278,0.999889,-306.272,-214.408)">
            <path d="M398.959,291.024C398.946,291.161 398.824,291.262 398.687,291.249C398.549,291.236 398.448,291.113 398.462,290.976C398.462,290.976 398.669,288.809 401.399,279.001C402.591,274.719 404.265,268.975 406.615,261.311C406.655,261.179 406.795,261.105 406.927,261.146C407.059,261.186 407.133,261.326 407.093,261.458C404.745,269.116 403.072,274.856 401.881,279.135C399.17,288.874 398.959,291.024 398.959,291.024Z" style="fill:white;"/>
        </g>
        <g transform="matrix(0.999889,-0.0149278,0.0149278,0.999889,-306.272,-214.408)">
            <path d="M346.5,344L347.536,326.163" style="fill:none;stroke:white;stroke-width:1px;"/>
        </g>
        <g transform="matrix(0.999889,-0.0149278,0.0149278,0.999889,-306.272,-214.408)">
            <path d="M338.059,285.463C359.856,293.246 381.413,294.116 399.504,291" style="fill:none;stroke:white;stroke-width:1px;"/>
        </g>
        <g transform="matrix(0.999889,-0.0149278,0.0149278,0.999889,-306.272,-214.408)">
            <path d="M399.504,291.084C396.552,298.023 395.595,305.378 396.193,313.5" style="fill:none;stroke:white;stroke-width:1px;"/>
        </g>
        <g transform="matrix(0.999889,-0.0149278,0.0149278,0.999889,-306.272,-214.408)">
            <path d="M338.059,285.463L339,291" style="fill:none;stroke:white;stroke-width:1px;"/>
        </g>
        <g transform="matrix(0.999889,-0.0149278,0.0149278,0.999889,-306.272,-214.408)">
            <path d="M347.5,320.156C347.361,322.242 347.307,324.127 347.121,325.965C367.862,335.862 382.025,335.613 392.884,330.269C392.943,329.882 392.311,320.866 392.229,318.854" style="fill:none;stroke:white;stroke-width:1px;"/>
        </g>
        <g transform="matrix(0.999889,-0.0149278,0.0149278,0.999889,-306.272,-214.408)">
            <path d="M337,262.956C338.921,271.157 339.499,278.726 339.054,285.813" style="fill:none;stroke:white;stroke-width:1px;"/>
        </g>
        <g transform="matrix(0.999889,-0.0149278,0.0149278,0.999889,-224.117,-204.633)">
            <path d="M241.349,227.043C242.832,223.975 246.997,221.182 252.617,218.972C265.806,213.786 286.997,211.6 298.342,215.079C300.047,215.602 302.142,216.489 303.072,217.408C303.507,217.838 303.724,218.293 303.721,218.735C303.858,218.895 303.982,219.102 304.082,219.356C304.352,220.037 304.506,221.147 304.664,222.22C306.845,223.224 309.267,225.763 311.174,230.045C317.832,231.128 322.865,232.846 326.116,235C328.443,236.542 329.879,238.321 330.414,240.243C331.287,243.38 329.777,247.003 325.439,250.76C322.69,260.277 319.307,271.028 317.551,279.099C317.587,279.094 317.619,279.092 317.645,279.092C317.92,279.093 318.087,279.224 318.19,279.357C318.292,279.488 318.374,279.668 318.318,279.927C318.302,280 318.239,280.182 317.997,280.448C317.865,280.594 317.728,280.92 317.559,281.371C317.249,282.195 316.903,283.388 316.556,284.798C315.738,288.131 314.925,292.664 314.625,296.461C314.431,298.91 314.439,301.043 314.83,302.302C314.89,302.495 314.859,302.705 314.746,302.873L311.264,308.042L311.852,319.351C311.857,319.445 311.842,319.539 311.808,319.627L311.562,320.261L312.451,334.96C312.466,335.214 312.336,335.455 312.114,335.58C293.232,346.273 276.9,345.238 263.56,333.501C263.39,333.351 263.308,333.127 263.34,332.904C264.179,327.168 264.206,321.433 264.441,315.698L264.241,315.534C264.054,315.379 263.965,315.136 264.01,314.897C264.34,313.118 264.506,311.272 264.356,309.298L261.529,306.471C261.369,306.311 261.301,306.081 261.348,305.86L264.287,292.146L255.985,280.384C255.904,280.269 255.861,280.131 255.863,279.991C255.891,278.036 255.389,276.194 255.393,274.461C255.394,273.777 255.781,273.603 255.977,273.553C256.077,273.528 256.199,273.521 256.332,273.553C256.303,264.082 255.721,257.06 254.792,253.935C254.646,253.443 254.496,253.058 254.332,252.792C254.299,252.738 254.247,252.675 254.21,252.633C254.111,252.666 254.004,252.675 253.9,252.659C247.471,251.681 242.305,250.682 239.267,248.786C237.052,247.403 235.893,245.561 236.037,242.981C236.042,242.894 236.064,242.809 236.101,242.73C236.516,241.864 237.036,238.107 237.787,236.152C238.541,234.191 239.637,232.744 241.095,232.041C240.896,230.505 240.789,229.282 240.807,228.505C240.818,228.023 240.886,227.675 240.977,227.473C241.074,227.259 241.208,227.125 241.349,227.043ZM311.786,335L310.888,320.156L311.186,319.386L310.586,307.854L314.193,302.5C312.738,297.808 316.132,281.51 317.504,280C318.172,279.265 316.563,280.542 316.773,279.545C318.504,271.347 322.024,260.195 324.854,250.385C335.324,241.443 329.366,233.59 310.709,230.646C308.772,226.138 306.278,223.547 304.061,222.688C303.816,221.078 303.634,219.247 303,219C303.496,217.772 300.435,216.419 298.146,215.717C282.094,210.794 246.145,217.365 241.823,227.611C241.308,227.424 241.403,229.372 241.823,232.46C240.275,232.994 239.167,234.42 238.41,236.391C237.652,238.361 237.121,242.144 236.703,243.018C236.379,248.809 243.475,250.398 254,252C255.767,251.055 257.021,260.199 257,274.66C256.999,275.56 256.061,273.494 256.059,274.463C256.056,276.198 256.557,278.042 256.53,280L265,292L262,306L265,309C265.189,311.127 265.02,313.11 264.665,315.019L265.121,315.394C264.871,321.263 264.858,327.131 264,333C277.128,344.551 293.203,345.523 311.786,335Z" style="fill:white;"/>
        </g>
        <g transform="matrix(0.999889,-0.0149278,0.0149278,0.999889,-306.274,-214.408)">
            <path d="M387.589,250.188C396.79,251.44 403.527,255.545 404.119,259.736C395.322,266.584 376.648,267.707 348.422,262.785C364.683,261.15 378.688,257.711 387.589,250.188Z" style="stroke:white;stroke-width:1px;"/>
        </g>
    </g>
</svg>
