<?xml version="1.0" encoding="UTF-8" standalone="no"?>
<!-- Created with Inkscape (http://www.inkscape.org/) -->

<svg
   version="1.1"
   id="svg55"
   width="546.1333"
   height="546.1333"
   viewBox="0 0 546.1333 546.1333"
   sodipodi:docname="sword.png.svg"
   inkscape:version="1.1.2 (0a00cf5339, 2022-02-04)"
   xmlns:inkscape="http://www.inkscape.org/namespaces/inkscape"
   xmlns:sodipodi="http://sodipodi.sourceforge.net/DTD/sodipodi-0.dtd"
   xmlns="http://www.w3.org/2000/svg"
   xmlns:svg="http://www.w3.org/2000/svg">
  <defs
     id="defs59" />
  <sodipodi:namedview
     id="namedview57"
     pagecolor="#ffffff"
     bordercolor="#666666"
     borderopacity="1.0"
     inkscape:pageshadow="2"
     inkscape:pageopacity="0.0"
     inkscape:pagecheckerboard="0"
     showgrid="false"
     inkscape:zoom="0.57274474"
     inkscape:cx="-209.51742"
     inkscape:cy="331.73591"
     inkscape:window-width="1920"
     inkscape:window-height="1023"
     inkscape:window-x="0"
     inkscape:window-y="20"
     inkscape:window-maximized="1"
     inkscape:current-layer="g61" />
  <g
     inkscape:groupmode="layer"
     inkscape:label="Image"
     id="g61">
    <path
       style="fill:#000000;stroke-width:1.06667"
       d="m 40.000273,548.42866 c -18.31206,-3.59627 -33.8776705,-19.48201 -37.4268005,-38.1965 -1.37595,-7.25532 -1.40669,-34.89959 -0.048,-43.19598 3.82615,-23.36374 24.7046405,-40.05758 50.1674505,-40.11242 3.46055,-0.007 5.68331,-1.95108 29.60206,-25.88478 L 108.15555,375.16225 90.481093,357.57231 c -9.72094,-9.67446 -18.36187,-18.88609 -19.20206,-20.47029 -1.9449,-3.66718 -1.96325,-10.78357 -0.0374,-14.50594 0.81963,-1.5842 8.15383,-9.3982 16.29822,-17.36445 11.38917,-11.14003 16.401457,-15.26498 21.709777,-17.8664 11.93993,-5.85136 24.82686,-6.87458 36.17136,-2.87201 2.59367,0.91511 5.03966,1.29452 5.43552,0.84316 0.39586,-0.45136 48.32872,-58.26843 106.51746,-128.48237 C 353.67063,40.65679 363.57485,29.047515 367.6615,27.579956 c 2.46943,-0.886796 40.78443,-6.75352 85.14445,-13.037165 l 80.65458,-11.4248097 4.8813,2.362994 c 3.75166,1.816147 5.42814,3.492631 7.24429,7.2442887 l 2.363,4.881295 -11.42481,80.654585 c -6.28365,44.360026 -12.15037,82.675016 -13.03717,85.144446 -1.46756,4.08666 -13.07684,13.99087 -129.27406,110.28756 -70.21393,58.18874 -128.03101,106.1216 -128.48237,106.51746 -0.45136,0.39587 -0.0719,2.84185 0.84316,5.43552 4.00257,11.3445 2.97935,24.23144 -2.87201,36.17136 -2.60142,5.30832 -6.72637,10.32061 -17.8664,21.70977 -7.96625,8.14439 -15.78024,15.47859 -17.36445,16.29822 -3.72236,1.92586 -10.83876,1.90752 -14.50594,-0.0374 -1.5842,-0.84019 -10.79583,-9.48112 -20.47029,-19.20206 l -17.58994,-17.67445 -25.87672,25.86056 c -23.93371,23.91875 -25.87735,26.1415 -25.88479,29.60207 -0.0548,25.4628 -16.74867,46.3413 -40.112417,50.16744 -7.59793,1.24427 -37.51041,1.1675 -44.03064,-0.11299 z m 43.73911,-33.17598 c 5.03445,-2.82952 8.412,-9.19848 8.412,-15.86231 0,-4.68021 -0.14474,-4.86339 -17.8549,-22.59656 -17.74439,-17.76745 -17.88425,-17.8781 -22.59656,-17.8781 -6.75707,0 -13.05005,3.36697 -15.95571,8.53688 -2.2679,4.0352 -2.38136,5.25247 -2.06302,22.13324 0.31011,16.4447 0.52474,18.12661 2.70292,21.18021 4.23213,5.93307 7.45219,6.765 26.2887,6.79204 15.44608,0.0222 17.28285,-0.17883 21.06657,-2.3054 z m 47.346997,-72.33863 22.3826,-22.40167 -11.46033,-11.46033 -11.46033,-11.46033 -22.65403,22.65402 -22.654017,22.65402 11.16983,11.20797 c 6.143407,6.16439 11.422687,11.20798 11.731747,11.20798 0.30905,0 10.63408,-10.08075 22.94453,-22.40166 z m 96.9406,-6.35897 c 9.20608,-9.65161 11.06593,-15.72494 7.12966,-23.28186 -2.55241,-4.90017 -93.17652,-95.37208 -97.88562,-97.72124 -7.1844,-3.58395 -14.46751,-1.0056 -23.77169,8.41561 l -5.84087,5.91433 56.50935,56.5169 c 31.08014,31.08428 56.79798,56.51689 57.15075,56.51689 0.35278,0 3.37157,-2.86228 6.70842,-6.36063 z M 369.02623,273.21522 C 437.03838,216.83994 493.01282,170.39994 493.41385,170.01523 494.4122,169.0575 512.81707,39.759232 512.06247,39.004625 511.0371,37.979261 381.83847,56.820737 380.56449,58.181422 379.34586,59.482996 178.00539,302.59772 176.06254,305.11357 c -0.81098,1.05018 1.81432,4.30064 10.55531,13.06884 l 11.63478,11.67097 94.41604,-94.31267 c 81.27597,-81.18698 95.00515,-94.47054 98.64906,-95.44718 11.98031,-3.21094 22.81163,7.57948 19.66282,19.58857 -0.98298,3.74889 -13.22085,16.40594 -95.4412,98.71033 l -94.31364,94.41003 11.45663,11.45663 c 6.30115,6.30114 11.73311,11.45662 12.07103,11.45662 0.33792,0 56.26071,-46.12522 124.27286,-102.50049 z"
       id="path145" />
  </g>
</svg>
